<?xml version="1.0" encoding="utf-8"?>
<!-- Generator: Adobe Illustrator 16.0.0, SVG Export Plug-In . SVG Version: 6.00 Build 0)  -->
<!DOCTYPE svg PUBLIC "-//W3C//DTD SVG 1.1//EN" "http://www.w3.org/Graphics/SVG/1.1/DTD/svg11.dtd">
<svg version="1.1" id="Layer_1" xmlns="http://www.w3.org/2000/svg" xmlns:xlink="http://www.w3.org/1999/xlink" x="0px" y="0px"
	 width="83.942px" height="16px" viewBox="0 0 83.942 16" enable-background="new 0 0 83.942 16" xml:space="preserve">
<g>
	<path fill="#FFB819" d="M24.148,12.893c-0.936,0-1.541-0.263-2.191-0.959v0.811h-1.393V4.31h1.518v2.693
		c0.582-0.582,1.142-0.811,1.963-0.811c1.814,0,3.184,1.438,3.184,3.345S25.929,12.893,24.148,12.893z M23.828,7.585
		c-1.061,0-1.837,0.811-1.837,1.952c0,1.152,0.776,1.963,1.872,1.963c1.084,0,1.837-0.799,1.837-1.952
		C25.7,8.418,24.913,7.585,23.828,7.585z"/>
	<path fill="#FFB819" d="M28.096,12.744V4.31h1.518v8.435H28.096z"/>
	<path fill="#FFB819" d="M35.058,12.744V12.14c-0.57,0.559-1.05,0.753-1.814,0.753c-1.473,0-2.408-0.856-2.408-3.082v-3.39h1.518
		v3.093c0,1.679,0.468,1.986,1.199,1.986c0.514,0,0.924-0.217,1.153-0.582c0.171-0.285,0.239-0.674,0.239-1.518V6.421h1.518v6.323
		H35.058z"/>
	<path fill="#FFB819" d="M43.947,10.256h-4.896c0.183,0.765,0.845,1.244,1.747,1.244c0.627,0,1.004-0.171,1.393-0.628h1.655
		c-0.423,1.302-1.735,2.021-3.014,2.021c-1.929,0-3.424-1.438-3.424-3.287c0-1.86,1.473-3.333,3.333-3.333
		c1.883,0,3.264,1.438,3.264,3.401C44.005,9.902,43.994,10.039,43.947,10.256z M40.764,7.665c-0.902,0-1.518,0.445-1.758,1.256
		h3.504C42.316,8.11,41.699,7.665,40.764,7.665z"/>
	<path fill="#2BACE2" d="M48.067,12.893c-1.849,0-3.356-1.483-3.356-3.31c0-1.815,1.508-3.311,3.345-3.311
		c1.906,0,3.379,1.473,3.379,3.355C51.435,11.409,49.904,12.893,48.067,12.893z M48.067,7.665c-0.993,0-1.826,0.856-1.826,1.895
		c0,1.084,0.81,1.94,1.837,1.94c1.005,0,1.826-0.856,1.826-1.917C49.904,8.532,49.083,7.665,48.067,7.665z"/>
	<path fill="#2BACE2" d="M53.808,9.229v3.516h-1.519V6.421h1.393v0.616c0.399-0.582,0.719-0.765,1.37-0.765h0.114v1.461
		C54.252,7.757,53.808,8.247,53.808,9.229z"/>
	<path fill="#2BACE2" d="M60.724,12.744v-0.821c-0.605,0.685-1.21,0.97-2.101,0.97c-1.849,0-3.184-1.381-3.184-3.287
		c0-1.929,1.347-3.333,3.218-3.333c0.913,0,1.541,0.297,2.066,0.993V6.421h1.393v6.323H60.724z M58.817,7.665
		c-1.084,0-1.849,0.822-1.849,1.975c0,1.107,0.765,1.86,1.871,1.86c1.153,0,1.838-0.821,1.838-1.872
		C60.678,8.476,59.901,7.665,58.817,7.665z"/>
	<path fill="#2BACE2" d="M67.343,12.744V9.651c0-1.689-0.457-1.986-1.21-1.986c-0.479,0-0.879,0.205-1.119,0.582
		c-0.193,0.309-0.251,0.674-0.251,1.519v2.979h-1.518V6.421h1.403v0.605c0.56-0.537,1.062-0.754,1.781-0.754
		c0.878,0,1.563,0.319,1.974,0.913c0.343,0.491,0.457,1.039,0.457,2.169v3.39H67.343z"/>
	<path fill="#2BACE2" d="M73.174,15.267c-1.553,0-2.739-0.742-3.253-2.009h1.724c0.444,0.491,0.879,0.673,1.586,0.673
		c1.13,0,1.712-0.661,1.77-2.02c-0.594,0.696-1.188,0.981-2.077,0.981c-1.804,0-3.104-1.404-3.104-3.355
		c0-1.872,1.323-3.265,3.115-3.265c0.913,0,1.599,0.309,2.066,0.947V6.421h1.449v5.125C76.449,14.262,75.137,15.267,73.174,15.267z
		 M73.105,7.665c-1.062,0-1.758,0.776-1.758,1.94c0,1.152,0.696,1.895,1.78,1.895s1.804-0.753,1.804-1.895
		C74.932,8.452,74.189,7.665,73.105,7.665z"/>
	<path fill="#2BACE2" d="M83.89,10.256h-4.896c0.183,0.765,0.845,1.244,1.746,1.244c0.628,0,1.005-0.171,1.393-0.628h1.655
		c-0.422,1.302-1.734,2.021-3.013,2.021c-1.93,0-3.425-1.438-3.425-3.287c0-1.86,1.473-3.333,3.333-3.333
		c1.883,0,3.265,1.438,3.265,3.401C83.947,9.902,83.936,10.039,83.89,10.256z M80.705,7.665c-0.901,0-1.518,0.445-1.757,1.256h3.504
		C82.258,8.11,81.642,7.665,80.705,7.665z"/>
</g>
<path fill="#2BACE2" d="M11.671,3.541c-1.507-0.515-3.072-0.43-4.442,0.12C5.957-0.706,0.005,0.05,0.005,0.05
	s1.303,1.377,1.771,2.678C2.11,3.653,3.143,4.696,5.229,4.93C4.487,5.623,3.898,6.502,3.547,7.53
	c-1.142,3.345,0.644,6.982,3.987,8.125c3.346,1.142,6.984-0.645,8.126-3.988C16.802,8.322,15.016,4.684,11.671,3.541z M3.334,2.065
	C2.722,1.316,0.886,0.377,0.886,0.377s5.053,0.29,5.906,3.474c-0.063,0.03-0.124,0.068-0.186,0.102
	C5.417,3.727,4.073,2.971,3.334,2.065z M14.912,11.008c-0.933,2.73-3.902,4.189-6.633,3.257c-2.731-0.933-4.19-3.905-3.258-6.636
	c0.397-1.163,1.178-2.076,2.14-2.69c0.419-0.031,0.583,0.105,0.646,0.273c0.061,0.281,0.68,0.204,0.915,0.153
	c0.232-0.05,0.799-0.221,0.749-0.52C9.423,4.544,8.679,4.671,8.507,4.71c-0.185,0-0.458,0.056-0.727-0.125
	c1.177-0.544,2.553-0.663,3.875-0.211C14.387,5.307,15.845,8.277,14.912,11.008z"/>
</svg>
